HIERARCHY
ROOT Hips
{
	OFFSET 0.000000 0.000000 0.000000
	CHANNELS 6 Xposition Yposition Zposition Zrotation Yrotation Xrotation 
	JOINT LHipJoint
	{
		OFFSET 0.000000 0.000000 0.000000
		CHANNELS 3 Zrotation Yrotation Xrotation
		JOINT LeftUpLeg
		{
			OFFSET 1.363060 -1.794630 0.839290
			CHANNELS 3 Zrotation Yrotation Xrotation
			JOINT LeftLeg
			{
				OFFSET 2.448110 -6.726130 0.000000
				CHANNELS 3 Zrotation Yrotation Xrotation
				JOINT LeftFoot
				{
					OFFSET 2.562200 -7.039590 0.000000
					CHANNELS 3 Zrotation Yrotation Xrotation
					JOINT LeftToeBase
					{
						OFFSET 0.157640 -0.433110 2.322550
						CHANNELS 3 Zrotation Yrotation Xrotation
						End Site
						{
							OFFSET 0.000000 0.000000 0.000000
						}
					}
				}
			}
		}
	}
	JOINT RHipJoint
	{
		OFFSET 0.000000 0.000000 0.000000
		CHANNELS 3 Zrotation Yrotation Xrotation
		JOINT RightUpLeg
		{
			OFFSET -1.305520 -1.794630 0.839290
			CHANNELS 3 Zrotation Yrotation Xrotation
			JOINT RightLeg
			{
				OFFSET -2.542530 -6.985550 0.000000
				CHANNELS 3 Zrotation Yrotation Xrotation
				JOINT RightFoot
				{
					OFFSET -2.568260 -7.056230 0.000000
					CHANNELS 3 Zrotation Yrotation Xrotation
					JOINT RightToeBase
					{
						OFFSET -0.164730 -0.452590 2.363150
						CHANNELS 3 Zrotation Yrotation Xrotation
						End Site
						{
							OFFSET 0.000000 0.000000 0.000000
						}
					}
				}
			}
		}
	}
	JOINT LowerBack
	{
		OFFSET 0.000000 0.000000 0.000000
		CHANNELS 3 Zrotation Yrotation Xrotation
		JOINT Spine
		{
			OFFSET 0.028270 2.035590 -0.193380
			CHANNELS 3 Zrotation Yrotation Xrotation
			JOINT Spine1
			{
				OFFSET 0.056720 2.048850 -0.042750
				CHANNELS 3 Zrotation Yrotation Xrotation
				JOINT Neck
				{
					OFFSET 0.000000 0.000000 0.000000
					CHANNELS 3 Zrotation Yrotation Xrotation
					JOINT Neck1
					{
						OFFSET -0.054170 1.746240 0.172020
						CHANNELS 3 Zrotation Yrotation Xrotation
						JOINT Head
						{
							OFFSET 0.104070 1.761360 -0.123970
							CHANNELS 3 Zrotation Yrotation Xrotation
							End Site
							{
								OFFSET 0.000000 0.000000 0.000000
							}
						}
					}
				}
				JOINT LeftShoulder
				{
					OFFSET 0.000000 0.000000 0.000000
					CHANNELS 3 Zrotation Yrotation Xrotation
					JOINT LeftArm
					{
						OFFSET 3.362410 1.200890 -0.311210
						CHANNELS 3 Zrotation Yrotation Xrotation
						JOINT LeftForeArm
						{
							OFFSET 4.983000 -0.000000 -0.000000
							CHANNELS 3 Zrotation Yrotation Xrotation
							JOINT LeftHand
							{
								OFFSET 3.483560 -0.000000 -0.000000
								CHANNELS 3 Zrotation Yrotation Xrotation
								JOINT LeftFingerBase
								{
									OFFSET 0.000000 0.000000 0.000000
									CHANNELS 3 Zrotation Yrotation Xrotation
									JOINT LeftHandIndex1
									{
										OFFSET 0.715260 -0.000000 -0.000000
										CHANNELS 3 Zrotation Yrotation Xrotation
										End Site
										{
											OFFSET 0.000000 0.000000 0.000000
										}
									}
								}
								JOINT LThumb
								{
									OFFSET 0.000000 0.000000 0.000000
									CHANNELS 3 Zrotation Yrotation Xrotation
									End Site
									{
										OFFSET 0.000000 0.000000 0.000000
									}
								}
							}
						}
					}
				}
				JOINT RightShoulder
				{
					OFFSET 0.000000 0.000000 0.000000
					CHANNELS 3 Zrotation Yrotation Xrotation
					JOINT RightArm
					{
						OFFSET -3.136600 1.374050 -0.404650
						CHANNELS 3 Zrotation Yrotation Xrotation
						JOINT RightForeArm
						{
							OFFSET -5.241900 -0.000000 -0.000000
							CHANNELS 3 Zrotation Yrotation Xrotation
							JOINT RightHand
							{
								OFFSET -3.444170 -0.000000 -0.000000
								CHANNELS 3 Zrotation Yrotation Xrotation
								JOINT RightFingerBase
								{
									OFFSET 0.000000 0.000000 0.000000
									CHANNELS 3 Zrotation Yrotation Xrotation
									JOINT RightHandIndex1
									{
										OFFSET -0.622530 -0.000000 -0.000000
										CHANNELS 3 Zrotation Yrotation Xrotation
										End Site
										{
											OFFSET 0.000000 0.000000 0.000000
										}
									}
								}
								JOINT RThumb
								{
									OFFSET 0.000000 0.000000 0.000000
									CHANNELS 3 Zrotation Yrotation Xrotation
									End Site
									{
										OFFSET 0.000000 0.000000 0.000000
									}
								}
							}
						}
					}
				}
			}
		}
	}
}
MOTION
Frames: 10
Frame Time: 0.008333
-22.947802 17.343298 -4.282513 136.642092 77.057636 155.063047 -0.174666 -5.100549 -4.214343 -13.988571 0.665264 -32.781533 0.403540 11.033944 26.004808 -2.999553 13.839003 4.693380 0.298500 -3.512800 -9.709700 -2.727393 3.438001 -3.899837 3.592060 -6.015905 -36.946687 -4.879033 -14.220480 42.259716 0.645473 -9.611370 -17.048775 -0.004500 -0.431100 1.184400 -4.494820 0.953653 17.613609 -0.690337 1.405617 0.162322 1.300071 0.888410 6.757532 -6.424840 -3.184878 -22.801626 5.166691 -1.605409 12.433919 1.179800 -0.660100 15.720100 -8.469728 -2.354743 -0.674028 -76.618371 -23.568043 71.257482 33.218104 -44.427681 -14.351183 1.388310 -0.795641 -45.943178 -27.153657 4.934896 -3.466900 -7.125000 0.000000 0.000000 -41.258000 33.169900 15.812700 11.156594 4.734610 -0.138626 61.789134 9.169906 23.848005 -12.572415 24.802768 -4.498249 1.112214 2.030429 -25.481209 -8.110303 -27.435404 4.818400 7.125000 0.000000 0.000000 22.911700 -57.509600 -7.273200 
-23.000523 17.348345 -4.339207 143.950312 78.243951 161.855870 -0.139702 -5.041778 -4.273899 -11.865645 0.497873 -33.021999 0.775242 11.479406 27.643802 -2.877468 13.180113 4.323283 0.168300 -2.643300 -7.287100 -3.001251 3.447557 -3.873443 5.976278 -6.091595 -36.345370 -4.512282 -14.003437 40.943647 0.702968 -9.700221 -16.395447 -0.003000 -0.355000 0.975500 -2.281433 0.559756 18.814991 -0.503400 1.077893 0.164240 0.656885 0.833447 6.156022 -6.020661 -2.801373 -21.897894 5.183222 -1.367873 12.359631 1.171500 -0.519600 15.419400 -8.421068 -2.417916 -0.620092 -76.615444 -23.088723 76.959869 33.443179 -44.259545 -13.674439 1.030925 -0.617508 -39.849443 -14.507258 -5.912516 1.257000 -7.125000 0.000000 0.000000 -29.806000 24.631100 17.002300 11.164950 4.700116 -0.181803 62.315560 8.448413 24.718281 -12.513226 24.851370 -4.457600 0.977874 2.062045 -27.167855 -6.617439 -27.393619 4.058000 7.125000 0.000000 0.000000 24.487900 -57.198400 -7.626600 
-23.063767 17.349526 -4.401054 157.913317 79.496048 174.891095 -0.174107 -4.992605 -4.344370 -8.877850 1.007292 -32.990900 1.193072 11.736541 29.016472 -2.780860 12.592898 4.262018 0.125600 -2.284800 -6.293300 -3.494050 3.393705 -3.838221 9.642615 -6.022990 -35.404363 -4.088320 -13.865659 39.548746 0.759509 -9.833273 -15.742577 -0.002400 -0.314000 0.862600 0.926640 0.086144 20.500725 -0.195301 0.897073 0.244212 -0.064374 0.838063 5.641226 -5.660721 -2.333916 -21.384500 5.089886 -0.956494 12.197625 1.127700 -0.340000 15.154300 -8.321015 -2.521826 -0.522168 -76.668738 -23.010446 83.456303 34.105003 -44.386099 -13.388772 0.422188 -0.238205 -30.402196 4.393554 -12.522922 -0.871700 -7.125000 0.000000 0.000000 -15.964600 18.093900 10.638300 11.258308 4.642982 -0.190940 62.493730 8.440060 25.423875 -12.114437 24.483069 -4.300005 0.831626 2.120279 -29.108186 -4.885830 -27.467466 3.205700 7.125000 0.000000 0.000000 26.378300 -56.971900 -8.123700 
-23.104247 17.357579 -4.457641 174.205633 79.051808 -170.089465 -0.160161 -5.005857 -4.445796 -6.081007 1.296737 -32.506926 1.587227 11.873551 30.147836 -2.567016 11.766337 4.751193 0.166500 -2.629000 -7.247400 -3.919016 3.243066 -3.771781 13.266908 -6.690342 -34.095978 -3.762536 -13.825583 38.546122 0.788262 -9.968528 -15.514701 -0.000700 -0.173000 0.475500 4.408115 -0.790591 22.501756 0.169036 0.474091 0.389295 -0.620536 0.688298 5.259926 -5.657782 -2.008328 -21.209853 5.018123 -0.550139 12.029901 1.178000 -0.204700 14.983900 -8.205774 -2.625647 -0.389766 -77.133701 -23.517082 88.715514 35.204665 -44.969048 -13.782042 -0.096596 -0.091051 -19.162304 18.715609 -7.975053 -2.688500 -7.125000 0.000000 0.000000 -5.806400 21.642900 3.272000 11.358858 4.574262 -0.198957 62.477203 8.457161 25.959366 -11.870349 24.261562 -4.202646 0.668549 2.169220 -31.386950 -3.203836 -27.346362 2.356800 7.125000 0.000000 0.000000 28.053900 -56.580800 -8.424000 
-23.143546 17.350707 -4.506066 173.515933 79.397161 -170.526179 -0.088679 -5.011932 -4.511871 -6.349536 1.286836 -33.286887 1.769345 12.200157 31.114148 -2.535527 11.594939 4.293800 0.129500 -2.319400 -6.389200 -3.909455 3.270585 -3.775802 13.043605 -6.685871 -34.288574 -3.667603 -13.650390 38.036303 0.835698 -10.010723 -14.811965 -0.000300 -0.118300 0.325000 3.903713 -1.010969 23.334651 0.255998 0.209308 0.436721 -0.009974 0.497905 5.098448 -6.004518 -1.746717 -21.267583 5.075912 -0.041507 11.868086 1.320000 -0.038600 14.861800 -8.130365 -2.628872 -0.299934 -78.106099 -24.542469 91.167270 35.574523 -45.158278 -13.897081 -0.090761 -0.000214 -18.045682 20.029334 -9.017323 -3.294400 -7.125000 0.000000 0.000000 -4.883200 20.377600 2.887600 11.383723 4.583739 -0.201299 62.313990 8.429466 26.898449 -11.991442 24.388373 -4.241183 0.473564 2.232197 -33.958309 -1.478556 -27.628474 1.510800 7.125000 0.000000 0.000000 30.089900 -56.557200 -9.096300 
-23.192401 17.329017 -4.555673 173.416553 79.728634 -170.161197 -0.011939 -5.017407 -4.597655 -6.425054 1.114829 -34.187452 1.909725 12.454630 31.832571 -2.551702 11.578362 3.781974 0.058100 -1.555200 -4.277900 -3.906966 3.302849 -3.766928 12.939306 -6.556381 -34.867746 -3.631471 -13.561182 37.812406 0.857485 -9.976913 -14.300189 -0.001100 -0.214000 0.587900 3.171787 -1.328529 23.792011 0.471949 -0.225607 0.474266 1.287620 0.138541 5.087949 -6.866187 -1.307880 -21.206756 5.103392 0.929227 11.730084 1.580000 0.254100 14.666600 -8.007840 -2.616357 -0.209174 -79.576507 -25.528014 92.596149 35.927252 -45.417546 -14.034707 -0.074761 0.081825 -16.952546 20.770828 -9.703356 -3.705800 -7.125000 0.000000 0.000000 -4.390400 19.518000 2.679100 11.502043 4.552523 -0.193595 61.414346 8.575630 28.789834 -12.162293 24.545619 -4.292418 0.239669 2.323150 -36.660063 0.353535 -28.145161 0.597700 7.125000 0.000000 0.000000 32.458200 -56.746900 -10.074500 
-23.225902 17.314736 -4.616984 173.359249 80.291825 -169.875784 0.037180 -5.030380 -4.659393 -6.528208 1.196535 -34.831291 2.030930 12.634481 32.400934 -2.567837 11.561473 3.363886 0.048900 -1.426600 -3.923500 -3.917285 3.306897 -3.751638 12.706994 -6.028476 -35.320724 -3.633966 -13.572872 37.832700 0.858636 -9.938569 -14.127965 -0.002800 -0.343600 0.944200 2.929104 -1.374013 24.517958 0.468865 -0.259965 0.514625 1.384783 0.113170 5.001214 -6.911766 -1.177151 -21.659938 5.125890 1.185847 11.731707 1.640200 0.348100 14.803500 -7.958796 -2.616099 -0.139160 -80.185611 -26.452796 94.784275 36.600168 -45.790771 -14.373797 -0.016333 0.121567 -16.241696 20.726815 -10.816802 -4.106700 -7.125000 0.000000 0.000000 -4.492100 18.316300 2.861600 11.472502 4.581402 -0.204021 61.641219 8.696535 29.771530 -12.320619 24.727622 -4.359889 0.081136 2.348217 -38.824238 1.843046 -28.678070 -0.170200 7.125000 0.000000 0.000000 34.440600 -56.942000 -10.963500 
-23.241793 17.313126 -4.692253 173.941065 80.888279 -169.147543 0.064490 -5.042216 -4.704723 -6.605107 1.379235 -35.212412 2.168472 12.816628 33.029683 -2.559352 11.442252 2.835252 0.036900 -1.240100 -3.409800 -3.952631 3.302298 -3.755572 12.481819 -5.420325 -35.421908 -3.609231 -13.576850 37.760782 0.867383 -9.962197 -13.990369 -0.003200 -0.367300 1.009300 2.874844 -1.389865 25.199054 0.439065 -0.221510 0.608542 1.284385 0.145790 5.074704 -6.929870 -1.142077 -22.091123 5.227512 1.284455 11.693650 1.740900 0.392100 14.891200 -7.937643 -2.588463 -0.052512 -80.706259 -27.424529 97.151391 37.299437 -46.173965 -14.748136 0.033932 0.160897 -15.854198 20.935898 -12.177278 -4.655600 -7.125000 0.000000 0.000000 -4.426100 16.828500 2.964100 11.427018 4.594094 -0.215838 61.898124 8.571526 31.202631 -12.795222 25.280864 -4.532933 -0.076253 2.351377 -41.030792 3.263689 -29.065718 -0.929300 7.125000 0.000000 0.000000 36.230600 -57.008600 -11.701900 
-23.252208 17.309905 -4.773321 175.603444 81.263294 -167.439031 0.087001 -5.048369 -4.742465 -6.540960 1.459512 -35.516539 2.323987 13.015920 33.730139 -2.508571 11.191106 2.289295 0.020500 -0.924500 -2.541100 -4.001180 3.296415 -3.760679 12.431131 -5.066233 -35.416426 -3.576750 -13.560038 37.640112 0.866874 -9.922528 -13.826551 -0.003900 -0.402400 1.105700 2.843884 -1.419358 25.872846 0.500842 -0.169753 0.682550 1.570946 0.138596 5.045250 -7.139685 -1.168406 -22.182448 5.384469 1.342112 11.575152 1.881100 0.411300 14.824900 -7.885035 -2.552186 0.045916 -81.651934 -28.200676 99.522200 37.992360 -46.592003 -15.107510 0.053354 0.190283 -15.591788 21.350215 -12.810970 -4.999800 -7.125000 0.000000 0.000000 -4.181100 16.089200 2.866400 11.433026 4.587833 -0.242310 61.676427 8.006841 33.126689 -13.592215 26.174151 -4.825679 -0.267466 2.349131 -43.458322 4.759381 -29.375733 -1.753600 7.125000 0.000000 0.000000 38.052500 -57.002600 -12.408000 
-23.265308 17.293369 -4.852670 176.650355 81.576332 -166.516836 0.099701 -5.041659 -4.739020 -6.575505 1.528035 -35.720747 2.475080 13.213697 34.429600 -2.426069 10.856777 1.817321 0.012700 -0.728400 -2.001900 -4.023568 3.290731 -3.752413 12.320129 -4.935042 -35.226817 -3.551923 -13.518220 37.509286 0.847597 -9.759347 -13.638225 -0.006300 -0.513300 1.410400 2.716989 -1.537077 27.053212 0.511471 -0.253565 0.663110 1.645171 0.094332 4.523503 -7.089318 -1.085941 -22.298999 5.530064 1.453235 11.518070 1.981600 0.477800 14.875000 -7.853656 -2.576679 0.109122 -82.050979 -28.423922 102.691005 38.506144 -46.894749 -15.448707 -0.111183 0.346824 -21.379571 27.138534 -17.340588 -8.875100 -7.125000 0.000000 0.000000 -0.581100 10.196000 0.469100 11.370807 4.639357 -0.284650 62.009112 7.507353 35.015946 -14.393557 27.036399 -5.127435 -0.431859 2.328292 -45.814705 6.320800 -29.893584 -2.641200 7.125000 0.000000 0.000000 40.098400 -57.125100 -13.356000 
